<svg xmlns="http://www.w3.org/2000/svg" viewBox="0 0 124.78792 141.68011" height="151.125" width="133.107"><g color="#000"><path style="isolation:auto;mix-blend-mode:normal" overflow="visible" fill="none" stroke="#0e2a7e" stroke-width="1.5" stroke-linecap="round" stroke-linejoin="round" d="M.75 25.513h36.154v34.749H.75zM.75 60.263h36.154v34.749H.75z"/><path style="isolation:auto;mix-blend-mode:normal" overflow="visible" fill="#f90" stroke="#0e2a7e" stroke-width="1.5" stroke-linecap="round" stroke-linejoin="round" d="M.75 95.012h36.154v34.749H.75z"/><path style="isolation:auto;mix-blend-mode:normal" overflow="visible" fill="none" stroke="#0e2a7e" stroke-width="1.5" stroke-linecap="round" stroke-linejoin="round" d="M36.904 25.514h36.154v34.749H36.904z"/><path style="isolation:auto;mix-blend-mode:normal" overflow="visible" fill="#f90" stroke="#0e2a7e" stroke-width="1.5" stroke-linecap="round" stroke-linejoin="round" d="M36.904 60.263h36.154v34.749H36.904z"/><path style="isolation:auto;mix-blend-mode:normal" overflow="visible" fill="none" stroke="#0e2a7e" stroke-width="1.5" stroke-linecap="round" stroke-linejoin="round" d="M36.904 95.012h36.154v34.749H36.904z"/><path style="isolation:auto;mix-blend-mode:normal" overflow="visible" fill="#f90" stroke="#0e2a7e" stroke-width="1.5" stroke-linecap="round" stroke-linejoin="round" d="M73.058 25.513h36.154v34.749H73.058z"/><path style="isolation:auto;mix-blend-mode:normal" overflow="visible" fill="none" stroke="#0e2a7e" stroke-width="1.5" stroke-linecap="round" stroke-linejoin="round" d="M73.058 60.263h36.154v34.749H73.058zM73.058 95.012h36.154v34.749H73.058z"/><path d="M42.077.47c-6.11 1.456-11.193 15.605-14.945 34.044-3.215 15.793-7.163 32.602-10.58 52-3.417 19.4-5.202 30.678-12.201 45.642 5.22 5.19 24.143 7.475 21.28 1.466-2.864-6.008-.317-21.711 3.094-45.185 3.411-23.473 6.234-40.84 9.413-55.514 3.179-14.675 6.93-21.885 8.931-18.021 3.115 6.016 5.504 14.811 8.232 31.462 2.727 16.651 4.755 42.4 7.901 59.744 3.147 17.344 9.73 28.255 14.86 8.59 5.13-19.667 12.855-59.742 15.898-45.099 3.043 14.643.236 46.68 4.84 65.96 2.671 10.932 11.416 5.51 14.858-2.948s7.043-16.389 11.13-24.067c-2.898-4.014-13.997-6.657-11.877-.344.83 2.467-2.537 13.536-6.962 14.655-2.72-24.104-3.1-66.557-4.763-72.641-1.663-6.085-8.792-8.435-12.766 4.109-3.973 12.543-8.95 41.306-13.699 47.279-4.75 5.973-6.781-15.318-7.956-26.6-1.175-11.282-4.28-39.908-7.978-54.71C55.09 5.489 52.53-2.02 42.077.47z" style="isolation:auto;mix-blend-mode:normal" overflow="visible" fill="#0e2a7e"/></g></svg>